# xmcd CD database file
# Copyright (C) 1995-1998 Ti Kan
#
# Track frame offsets:
#	150
#	14265
#	27959
#	43807
#	59061
#	73045
#	86750
#	102543
#	116944
#
# Disc length: 1754 seconds
#
# Revision: 1
# Processed by: cddbd v1.4PL0 Copyright (c) Steve Scherf et al.
# Submitted via: CDex 1.30Release
#
DISCID=8406d809
DTITLE=Justin Wortham - You and Me
DYEAR=1900
DGENRE=Country
TTITLE0=You And Me
TTITLE1=Beautiful Heart
TTITLE2=She's Gone
TTITLE3=Ring And A Prayer
TTITLE4=When Love Goes
TTITLE5=Life's About Livin'
TTITLE6=John Deere Letter
TTITLE7=Maybe It's You
TTITLE8=What Was I Thinking
EXTD=ID3G:   2
EXTT0=
EXTT1=
EXTT2=
EXTT3=
EXTT4=
EXTT5=
EXTT6=
EXTT7=
EXTT8=
PLAYORDER=
